<svg xmlns="http://www.w3.org/2000/svg" width="486" height="93.558" viewBox="0 0 486 93.558"><defs><style>.a{fill:#f27934;}</style></defs><path class="a" d="M195.579,0a46.779,46.779,0,1,0,46.779,46.779h0A46.768,46.768,0,0,0,195.579,0ZM223.81,31.1v1.637h0v.136h0V33h0a.134.134,0,0,1-.136.136h0l-.136.136h0L200.353,73.646a4.817,4.817,0,0,1-4.228,2.455,5.557,5.557,0,0,1-2.455-.682,4.9,4.9,0,0,1-1.773-6.683L210.99,35.6h-30l4.364,7.5a4.865,4.865,0,1,1-8.319,5.046L168.166,33.55a4.861,4.861,0,0,1,1.637-6.683h0c.136-.136.273-.136.546-.273a5.715,5.715,0,0,1,2.046-.546h46.643a3,3,0,0,1,1.091.136h1.091l.136.136h0l.136.136h0l.136.136h0l.136.136h.136l.136.136.136.136h0l.136.136h0a1.361,1.361,0,0,1,.546.682h0l.136.136.136.136h0A4.582,4.582,0,0,1,223.81,30h0v.546h0C223.538,30.413,223.81,31.1,223.81,31.1Z" transform="translate(54.103)"/><path class="a" d="M9.41,28.61V40.066H27.822A5.556,5.556,0,0,1,33,45.113c0,2.318-2.591,4.364-5.183,4.364H9.41V64.615a4.371,4.371,0,0,1-4.091,4.5H5.046C1.909,69.116,0,67.207,0,64.615V23.7c0-2.591,1.909-4.5,5.183-4.5H30.413c3.137,0,5.046,1.909,5.046,4.5a5.007,5.007,0,0,1-5.046,4.91h-21Z" transform="translate(0 6.978)"/><path class="a" d="M36.2,69.08a4.513,4.513,0,0,1-4.5-4.364V23.664A4.28,4.28,0,0,1,35.928,19.3H61.977a4.637,4.637,0,1,1,0,9.274H41.383V39.348H59.522a4.71,4.71,0,1,1,.409,9.41H41.383V59.533H63.341a4.729,4.729,0,0,1,.955,9.41h-.818Z" transform="translate(11.533 7.014)"/><path class="a" d="M64.2,23.564a4.364,4.364,0,1,1,8.728,0v36H92.568c7.092,0,7.228,9.41,0,9.41H68.837a4.308,4.308,0,0,1-4.5-4.228V23.564Z" transform="translate(23.345 6.978)"/><path class="a" d="M94.7,23.6c0-5.864,9.547-6.137,9.547,0V64.652c0,6-9.547,6.137-9.547,0Z" transform="translate(34.436 6.941)"/><path class="a" d="M111.515,69.261c-4.5,0-6.274-4.364-3.819-7.5l25.64-34.1H112.06c-6.274,0-5.728-8.865,0-8.865h29.186c5.455,0,7.092,5.183,3.137,9.41L119.834,60.124h23.321a4.569,4.569,0,0,1-.136,9.138h-31.5Z" transform="translate(38.758 6.832)"/><path class="a" d="M230.136,23.91a4.889,4.889,0,0,1,4.91-4.91h16.639c9.41,0,17.73,6.274,17.73,18.275,0,11.32-8.456,17.73-17.73,17.73H239.547v9.547a4.553,4.553,0,0,1-4.091,4.91h-.546A4.862,4.862,0,0,1,230,64.688v-.136ZM239.683,28V45.867h12a9,9,0,1,0,0-18Z" transform="translate(83.634 6.905)"/><path class="a" d="M264.5,23.764A4.425,4.425,0,0,1,269,19.4a4.369,4.369,0,0,1,4.228,4.364v36h19.639c7.092,0,7.228,9.41,0,9.41H269a4.308,4.308,0,0,1-4.5-4.228V23.764Z" transform="translate(96.179 7.051)"/><path class="a" d="M295.96,69.292a5.025,5.025,0,0,1-2.318-6.819v-.136l20.594-40.369a4.846,4.846,0,0,1,6.41-2.455,4.79,4.79,0,0,1,2.455,2.455l20.321,40.506c3,5.592-5.728,10.092-8.319,4.5L331.965,60.7H305.507l-3.137,6.274C301.143,69.292,298.551,69.838,295.96,69.292Zm30.959-18.275-8.183-17.73-8.865,17.73Z" transform="translate(106.575 6.938)"/><path class="a" d="M325.625,26.39c-3.41-4.637,4.364-10.365,8.046-4.773l12.547,18.821L358.9,21.753c3.819-5.319,11.729,0,8.047,4.773L350.72,49.984V64.85c0,6.274-9.547,6.137-9.547,0V49.984Z" transform="translate(118.098 7.016)"/></svg>